<?xml version="1.0" encoding="utf-8"?>
<!DOCTYPE svg PUBLIC "-//W3C//DTD SVG 1.1//EN" "http://www.w3.org/Graphics/SVG/1.1/DTD/svg11.dtd">
<svg xmlns:svg="http://www.w3.org/2000/svg" xmlns="http://www.w3.org/2000/svg" xmlns:xlink="http://www.w3.org/1999/xlink" version="1.1" id="Layer_1" x="0px" y="0px" width="574.5px" height="254px" viewBox="0 -4.5 574.5 254" enable-background="new 0 -4.5 574.5 254" xml:space="preserve">
	<path id="path3717" fill="#BD0000" d="M321.408,147.957h-0.012c-1.105,0-2.082,0.365-3,1.105c-0.682,0.541-1.152,1.271-1.527,2.082  h0.047c0.375-0.812,0.846-1.541,1.516-2.082C319.349,148.322,320.326,147.969,321.408,147.957z"/>
	<path id="path3721" fill="#BD0000" d="M321.443,147.957c-0.012,0-0.023,0-0.035,0c1.141,0.012,1.893,0.4,2.398,1.234  c0.225,0.354,0.342,0.883,0.342,1.553c0,0.118-0.023,0.271-0.035,0.4h0.047c0-0.129,0.023-0.282,0.023-0.4  c0-0.67-0.105-1.199-0.33-1.553C323.347,148.346,322.584,147.957,321.443,147.957z"/>
	<g id="g3723" transform="matrix(0.385154,0,0,0.385154,761.04039,896.78783)">
		<g id="g3725" transform="matrix(1.705222,0,0,1.705222,-769.6823,-728.9956)">
			<path id="path3727" fill="#008033" d="M-697.285-564.673h13.359l5.998-25.071h21.704l2.793-10.743h-21.793l3.618-16.117h23.19    l2.793-12.535h-36.62L-697.285-564.673z"/>
		</g>
		<g id="g3729" transform="matrix(1.705222,0,0,1.705222,-725.4318,-711.9434)">
			<path id="path3731" fill="#008033" d="M-663.318-574.673l4.011-16.833c2.113-9.115,6.572-17.19,15.007-17.19    c0.752,0,1.486,0.376,2.041,0.465l3.259-12.911c-0.752,0-1.575-0.089-2.507-0.089c-6.214,0-11.425,4.369-14.899,10.636h-0.358    c0.519-3.062,0.966-5.963,1.307-8.846h-11.515c-0.662,3.725-1.683,11.012-3.241,17.584l-6.554,27.184H-663.318z"/>
		</g>
		<g id="g3733" transform="matrix(1.705222,0,0,1.705222,-690.253,-711.9434)">
			<path id="path3735" fill="#008033" d="M-624.533-586.76c-3.706,1.808-7.933,1.343-12.857,1.343c-3.885,0-6.894-0.681-8.542-2.006    c-0.859-1.45-1.218-3.707-1.146-5.157c18.14,0.483,29.582-3.707,30.155-15.168c0.43-8.649-5.891-13.483-15.078-13.483    c-16.403,0-27.147,14.468-27.845,28.4c-0.609,12.158,5.695,18.158,18.695,18.158c4.996,0,11.622-0.574,17.048-2.202    L-624.533-586.76z M-629.439-607.748c-0.215,4.262-5.48,4.513-15.848,4.424c1.129-3.743,4.925-7.162,11.138-7.162    C-631.086-610.486-629.332-609.324-629.439-607.748z"/>
		</g>
		<g id="g3737" transform="matrix(1.705222,0,0,1.705222,-645.0305,-711.9434)">
			<path id="path3739" fill="#008033" d="M-603.581-586.76c-3.707,1.808-7.933,1.343-12.839,1.343c-3.903,0-6.894-0.681-8.542-2.006    c-0.859-1.45-1.236-3.707-1.164-5.157c18.157,0.483,29.582-3.707,30.173-15.168c0.43-8.649-5.891-13.483-15.078-13.483    c-16.421,0-27.165,14.468-27.863,28.4c-0.591,12.158,5.713,18.158,18.695,18.158c5.014,0,11.64-0.574,17.065-2.202    L-603.581-586.76z M-608.469-607.748c-0.215,4.262-5.48,4.513-15.866,4.424c1.146-3.743,4.925-7.162,11.138-7.162    C-610.134-610.486-608.362-609.324-608.469-607.748z"/>
		</g>
		<g id="g3741" transform="matrix(1.705222,0,0,1.705222,-583.796,-711.9434)">
			<path id="path3743" fill="#008033" d="M-570.369-574.673c0.107-5.677,1.468-14.594,2.883-20.449l5.747-24.318    c-3.652-1.236-9.347-1.79-14.827-1.79c-22.24,0-33.271,16.473-34.041,31.911c-0.483,9.687,4.763,14.648,12.929,14.648    c5.282,0,11.245-2.56,15.883-10.261h0.197c-0.358,3.707-0.788,7.307-1.021,10.261H-570.369z M-579.556-600.245    c-2.615,11.39-7.951,14.827-11.926,14.827c-3.707,0-5.319-2.632-5.104-6.465c0.43-8.648,7.27-18.604,15.902-18.604    c1.396,0,2.489-0.251,3.51-0.503L-579.556-600.245z"/>
		</g>
		<g id="g3745" transform="matrix(1.705222,0,0,1.705222,-536.6807,-711.9434)">
			<path id="path3747" fill="#008033" d="M-589.242-576.786c2.578,2.006,7.986,2.024,13.628,2.113    c12.051,0.089,21.148-5.176,21.685-14.845c0.305-6.446-4.691-10.261-9.58-12.822c-3.528-1.701-5.301-3.331-5.212-5.228    c0.126-2.562,2.525-2.919,6.053-2.919c3.975,0,7.162,0.483,8.988,0.842l3.618-9.707c-2.059-1.236-6.178-1.879-11.46-1.879    c-11.695,0-20.253,6.178-20.736,15.56c-0.287,5.802,3.885,9.707,8.935,12.356c4.083,2.095,5.479,3.707,5.372,5.98    c-0.125,2.293-2.166,1.917-5.873,1.917c-4.352,0-9.168-0.572-11.711-0.966L-589.242-576.786z"/>
		</g>
		<g id="g3749" transform="matrix(1.705222,0,0,1.705222,-481.3463,-730.7008)">
			<path id="path3751" fill="#008033" d="M-550.243-563.673l10.834-44.768h-13.269l-10.905,44.768H-550.243z M-544.029-613.813    c4.548,0,8.596-3.76,8.846-10.208c0.216-4.369-2.614-5.909-6.786-5.909c-4.352,0-8.327,2.83-8.56,7.055    C-550.744-618.613-547.915-613.813-544.029-613.813z"/>
		</g>
		<g id="g3753" transform="matrix(1.705222,0,0,1.705222,-456.9787,-710.7668)">
			<path id="path3755" fill="#008033" d="M-538.926-575.363l4.727-20.164c2.453-10.26,7.736-13.859,12.087-13.859    c3.438,0,4.441,1.468,4.279,3.6c-0.089,1.719-0.357,3.527-0.715,5.139l-6.018,25.285h13.358l6.34-26.521    c0.483-2.293,1.02-5.713,1.127-7.79c0.394-8.075-3.634-11.012-11.048-11.012c-5.946,0-11.729,2.757-16.295,8.739h-0.18    l1.218-8.184h-11.782c-0.77,3.832-1.756,8.469-3.152,13.877l-7.307,30.891H-538.926z"/>
		</g>
		<g id="g3757" transform="matrix(1.705222,0,0,1.705222,-389.5201,-728.9956)">
			<path id="path3759" fill="#008033" d="M-521.005-564.673h13.358l6.018-25.071h21.684l2.795-10.743h-21.794l3.618-16.117h23.191    l2.792-12.535h-36.62L-521.005-564.673z"/>
		</g>
		<g id="g3761" transform="matrix(1.705222,0,0,1.705222,-345.2696,-711.9434)">
			<path id="path3763" fill="#008033" d="M-487.037-574.673l4.012-16.833c2.111-9.115,6.572-17.19,15.006-17.19    c0.752,0,1.487,0.376,2.04,0.465l3.259-12.911c-0.752,0-1.576-0.089-2.507-0.089c-6.212,0-11.422,4.369-14.899,10.636h-0.357    c0.52-3.062,0.966-5.963,1.306-8.846h-11.512c-0.645,3.725-1.683,11.012-3.241,17.584l-6.554,27.184H-487.037z"/>
		</g>
		<g id="g3765" transform="matrix(1.705222,0,0,1.705222,-310.0908,-711.9434)">
			<path id="path3767" fill="#008033" d="M-448.25-586.76c-3.708,1.808-7.934,1.343-12.859,1.343c-3.887,0-6.893-0.681-8.541-2.006    c-0.859-1.45-1.219-3.707-1.148-5.157c18.14,0.483,29.584-3.707,30.158-15.168c0.428-8.649-5.891-13.483-15.077-13.483    c-16.404,0-27.148,14.468-27.847,28.4c-0.61,12.158,5.713,18.158,18.696,18.158c4.996,0,11.64-0.574,17.046-2.202L-448.25-586.76z     M-453.157-607.748c-0.217,4.262-5.481,4.513-15.847,4.424c1.127-3.743,4.925-7.162,11.137-7.162    C-454.805-610.486-453.05-609.324-453.157-607.748z"/>
		</g>
		<g id="g3769" transform="matrix(1.705222,0,0,1.705222,-264.8684,-711.9434)">
			<path id="path3771" fill="#008033" d="M-427.299-586.76c-3.708,1.808-7.934,1.343-12.841,1.343c-3.902,0-6.893-0.681-8.541-2.006    c-0.859-1.45-1.234-3.707-1.163-5.157c18.155,0.483,29.581-3.707,30.172-15.168c0.428-8.649-5.891-13.483-15.077-13.483    c-16.421,0-27.166,14.468-27.865,28.4c-0.589,12.158,5.713,18.158,18.696,18.158c5.014,0,11.64-0.574,17.064-2.202    L-427.299-586.76z M-432.188-607.748c-0.214,4.262-5.481,4.513-15.865,4.424c1.145-3.743,4.925-7.162,11.137-7.162    C-433.854-610.486-432.081-609.324-432.188-607.748z"/>
		</g>
		<g id="g3773" transform="matrix(1.705222,0,0,1.705222,-219.8846,-730.7008)">
			<path id="path3775" fill="#008033" d="M-400.603-629.93l-5.032,20.342c-1.829-0.752-4.208-0.644-6.073-0.644    c-17.153,0-29.295,14.683-30.101,30.584c-0.538,11.21,5.445,15.974,13.144,15.974c5.389,0,11.066-2.382,15.363-8.542h0.181    l-1.023,8.542H-402c0.556-5.372,1.719-11.764,3.027-17.604l11.622-48.653H-400.603z M-411.062-586.199    c-2.094,8.828-7.036,11.782-10.941,11.782c-3.887,0-6.052-2.705-5.784-7.521c0.449-8.919,6.572-17.549,14.542-17.549    c2.236,0,4.154,0.339,5.21,0.842L-411.062-586.199z"/>
		</g>
		<g id="g3777" transform="matrix(1.705222,0,0,1.705222,-169.2225,-711.9434)">
			<path id="path3779" fill="#008033" d="M-399.855-574.673c15.58,0,27.597-11.802,28.439-27.863    c0.517-10.637-6.108-18.695-18.337-18.695c-16.154,0-27.74,13.071-28.546,28.865    C-418.851-580.869-411.441-574.673-399.855-574.673z M-397.758-585.417c-4.55,0-7.057-2.901-6.786-7.234    c0.357-7.217,4.818-17.835,12.499-17.835c5.299,0,6.929,4.064,6.715,8.057C-385.726-594.55-390.523-585.417-397.758-585.417z"/>
		</g>
		<g id="g3781" transform="matrix(1.705222,0,0,1.705222,-120.5213,-711.9434)">
			<path id="path3783" fill="#008033" d="M-383.376-574.673l4.835-20.449c2.022-9.115,7.072-15.364,11.604-15.364    c3.256,0,4.154,2.38,3.991,5.497c-0.089,1.612-0.446,3.42-0.824,5.21l-5.98,25.107h12.894l4.835-20.54    c2.218-9.4,6.983-15.273,11.422-15.273c3.063,0,4.336,2.184,4.19,5.299c-0.089,1.81-0.464,3.796-0.931,5.606l-5.802,24.909h12.984    l6.248-26.521c0.485-2.382,1.041-6.089,1.13-7.986c0.393-7.879-3.456-12.051-10.405-12.051c-5.945,0-11.729,2.685-16.115,8.345    c-0.161-4.083-3.081-8.345-10.316-8.345c-5.855,0-11.44,2.65-15.919,8.648h-0.178l1.198-6.858h-11.494    c-0.752,3.832-1.665,8.469-3.063,13.877l-7.2,30.891H-383.376z"/>
		</g>
	</g>
	<path id="path3785" nodetypes="cccccssccccscccsccc" fill="#AA0000" fill-opacity="0" stroke="#007F32" stroke-width="3.2839" d="  M351.428,166.24c0.479,1.227,0.955,2.453,1.453,3.65c0.766,1.629,1.65,3.188,2.715,4.643c5.75,7.814,15.377,12.094,27.602,13.159  h13.148c4.158-0.324,8.516-0.929,13.031-1.812c7.787-1.522,16.043-3.862,24.617-6.988c6.494-2.368,13.168-5.17,19.941-8.427  c14.752-7.07,29.988-16.19,44.938-27.196c4.924-3.621,9.648-7.337,14.184-11.116c4.158-3.459,8.146-6.973,11.957-10.524  c10.633-10.247,18.658-20.654,23.205-29.792c4.734-9.516,5.678-17.652,1.799-22.777c-2.377-3.146-6.355-4.832-11.477-5.229  c23.074-17.315,36.521-38.319,31.699-51.562c-1.533-4.226-4.904-7.379-9.738-9.123c-2.148-0.773-4.566-1.262-7.201-1.485h-7.102  c-9.916,0.715-24.338,4.266-36.572,10.262"/>
	<path id="path3719" nodetypes="ccsccccccccccccsccccccscccccsccscccccccccccccccccccccccccccccccccccccccccccsscccccsscccscccccccccccccccccccccccccsssccccssssssssccscccsscccccssssssscccssscccccccccsssscccccccccccsscccccccsssccccccsssccccccccccccccccccccsccccsssccccccsccscscccssssscccssccsccscscccsssssssscccsscssssccsccssscsccccscscccscccccsscssscccccssssscccscccsccccsscccccccsccssscccssssssccccscsccccccccscccccccccsscsssccsscssssccsscsssccsssssssssscccsssssssssssssscccccccc" fill="#008033" d="  M60.003,6.262L20.476,184.734c0.012,0,76.227,0,76.25,0c47.319,0,189.241,0,189.241,0h98.423  c-11.727-1.023-20.982-5.141-26.498-12.644c-1.023-1.388-1.869-2.883-2.609-4.447c-0.471-1.152-0.914-2.315-1.361-3.491  c-1.176-3.74-1.645-7.891-1.432-12.312c0.588-12.325,6.371-26.986,16.391-42.339c10.645-16.316,26.07-33.417,45.17-49.286  c4.279-3.554,8.707-7.064,13.34-10.475c5.729-4.214,11.5-8.095,17.275-11.724c21.275-13.395,42.498-22.767,61.303-27.528  c-17.971,5.863-38.16,15.816-58.105,29.366c-0.719,0.484-1.426,0.98-2.133,1.47c-11.066,7.668-21.092,15.812-29.842,24.037  c-28.156,26.474-43.039,53.906-36.275,69.977c0.482,1.105,1.057,2.161,1.727,3.161c7.268,10.69,25.281,12.538,48.109,6.799  c1.553-0.388,3.105-0.827,4.705-1.286c7.291-2.105,15.033-4.948,23.008-8.453c1.916-0.847,3.854-1.717,5.807-2.646  c0.199-0.094,0.387-0.188,0.588-0.294c25.168-12.505,44.51-26.895,48.697-35.54c0.918-1.88,1.137-3.484,0.514-4.741  c-2.986-6.057-23.891-1.965-49.211,9.004c-2.035,0.882-4.094,1.79-6.176,2.756c1.695-1.572,3.457-3.151,5.256-4.705  c2.871-2.472,5.842-4.889,9.006-7.277c4.951-3.75,9.957-7.139,14.885-10.144c23.074-17.409,34.74-33.876,32.305-39.987  c-0.459-1.151-1.434-1.943-2.939-2.425c-4.811-1.53-13.59,0.296-24.258,4.667c-8.797,3.608-18.9,8.959-29.145,15.62l-1.396,0.919  l-0.258,0.147l-4.924,3.271l2.83-5.182c4.197-7.686,11.037-15.705,19.553-23.154c6.244-5.446,13.379-10.578,21.059-15.068  c2.904-1.701,5.805-3.28,8.711-4.705c2.975-1.454,5.951-2.746,8.857-3.896c8.439-3.337,17.711-7.552,24.736-8.104  c-0.641,0-20.951,2.187-20.951,2.187h-66.523H160.86H60.003z M348.631,6.52c-1.152,17.591,2.258,43.356,9.996,71.962  c1.377,5.09,2.875,10.27,4.521,15.51c1.021,3.235,2.078,6.42,3.16,9.556c-0.635,0.934-1.275,1.862-1.875,2.793  c-9.656,14.797-15.299,28.782-16.723,40.943c-4.08-13.667-7.152-28.636-8.895-44.508c-0.494-4.548-0.879-9.045-1.139-13.488  C335.773,57.011,339.986,27.754,348.631,6.52z M155.935,29.416c0.22-0.005,0.438,0,0.662,0h43.479c3.716,0,6.59,0.697,8.637,2.095  c2.034,1.407,2.798,3.226,2.315,5.439l-5.182,23.412H190.52l5.035-22.787h-38.37l-13.855,62.626l-4.999,22.677h38.334l0.036-0.146  l7.682-34.695h-18.009l1.727-7.828h33.335l-9.556,43.295c-0.129,0.616-0.355,1.174-0.661,1.727c-0.788,1.436-2.163,2.664-4.08,3.676  c-2.657,1.399-5.839,2.095-9.556,2.095h-43.441c-3.717,0-6.59-0.695-8.637-2.095c-2.035-1.399-2.81-3.188-2.315-5.402l19.148-86.553  c0.494-2.213,2.035-4.033,4.705-5.439c0.094-0.05,0.2-0.062,0.294-0.11C149.772,30.181,152.632,29.495,155.935,29.416z   M224.075,29.416H278.8c3.669,0,6.554,0.697,8.6,2.095c2.059,1.407,2.847,3.226,2.353,5.439l-10.218,46.162  c-0.481,2.199-2.06,3.994-4.741,5.403c-2.681,1.414-5.838,2.131-9.519,2.131h-39.767l-7.682,34.658l-1.249,5.696h-14.995  l1.139-5.146L224.075,29.416z M299.676,29.416h14.994l-16.979,76.703l-3.713,16.759h35.871c0.377,2.751,0.816,5.453,1.287,8.122  h-53.954l4.263-19.258L299.676,29.416z M237.269,37.576l-9.96,44.912h37.378l9.923-44.912H237.269z M157.567,143.575  c0.146-0.005,0.293,0,0.441,0c1.741,0,3.26,0.306,4.484,0.882c1.306,0.611,2.239,1.521,2.757,2.721  c0.506,1.164,0.638,2.485,0.367,3.932l-0.11,0.552h-4.3l0.036-0.515c0.111-1.011-0.014-1.806-0.404-2.352  c-0.051-0.069-0.124-0.16-0.184-0.221c-0.097-0.1-0.242-0.213-0.367-0.295c-0.602-0.379-1.543-0.588-2.757-0.588  c-1.611,0-2.815,0.281-3.638,0.846c-0.8,0.553-1.306,1.17-1.47,1.911c-0.165,0.753,0.106,1.147,0.294,1.359  c0.006,0.007,0.03,0.03,0.037,0.037c0.239,0.203,1.066,0.679,3.639,1.286c2.329,0.564,3.871,1.072,4.741,1.508  c1.317,0.67,2.238,1.539,2.72,2.608c0.482,1.059,0.589,2.298,0.295,3.639c-0.295,1.306-0.96,2.51-1.948,3.639  c-0.977,1.129-2.218,2.022-3.712,2.646c-1.482,0.611-3.108,0.955-4.778,0.955c-2.117,0-3.816-0.32-5.145-0.955  c-1.388-0.659-2.389-1.698-2.977-3.051c-0.564-1.317-0.685-2.812-0.368-4.447l0.11-0.515h4.227l-0.037,0.515  c-0.106,0.976-0.001,1.765,0.257,2.353c0.247,0.564,0.717,1.032,1.47,1.396c0.799,0.389,1.799,0.588,2.94,0.588  c1.023,0,1.958-0.172,2.793-0.478c0.824-0.294,1.478-0.683,1.948-1.177c0.458-0.493,0.728-1.016,0.845-1.58  c0.118-0.506,0.089-0.934-0.11-1.286c-0.224-0.376-0.666-0.71-1.36-0.992l-3.602-1.065c-2.011-0.506-3.365-0.988-4.153-1.471  c-1.07-0.635-1.842-1.449-2.242-2.426c-0.4-0.964-0.442-2.033-0.184-3.197c0.271-1.246,0.872-2.434,1.801-3.491  c0.941-1.07,2.155-1.91,3.602-2.463C154.803,143.904,156.149,143.623,157.567,143.575z M196.157,143.648  c0.233-0.018,0.452,0,0.699,0l2.646,0.295l0.882,0.072l-1.286,3.271l-0.257,0.515l-2.021-0.184c-0.597,0-1.035,0.093-1.323,0.294  c-0.019,0.015-0.056,0.059-0.073,0.073c-0.039,0.034-0.104,0.093-0.147,0.147c-0.177,0.232-0.393,0.646-0.551,1.396  c0,0-0.077,0.317-0.147,0.588c0.93,0,3.161,0,3.161,0l-0.809,3.639c0,0-2.312,0-3.087,0c-0.235,1.059-3.125,14.003-3.125,14.003  h-4.263c0,0,2.771-12.438,3.124-14.003c-0.718,0-2.463,0-2.463,0l0.809-3.639c0,0,1.756,0,2.426,0  c0.118-0.506,0.294-1.139,0.294-1.139c0.259-1.177,0.529-2.021,0.882-2.61c0.482-0.812,1.163-1.49,2.022-1.984  C194.255,143.973,195.149,143.728,196.157,143.648z M206.337,143.832c0,0-1.114,5.016-1.396,6.285c0.823,0,2.757,0,2.757,0  l-0.809,3.639c0,0-2.027,0-2.757,0c-0.224,1.012-1.984,8.857-1.984,8.857S202,163.556,202,163.826c0.001,0.009,0,0.03,0,0.037  c0.001,0.002,0,0.034,0,0.036c0.002,0.002,0.036-0.001,0.037,0l0.441,0.037l2.021-0.147l-0.221,3.271l0.037,0.588l-2.904,0.33  c-1.152,0-1.997-0.188-2.609-0.588c-0.646-0.423-1.023-0.984-1.176-1.689c-0.023-0.13-0.073-0.318-0.073-0.589  c0-0.529,0.1-1.425,0.44-2.978c0,0,1.545-6.92,1.875-8.379c-0.553,0-2.021,0-2.021,0l0.809-3.639c0,0,1.434,0,2.021,0  c0.188-0.847,0.845-3.749,0.845-3.749l3.418-1.801L206.337,143.832z M70.904,143.979h16.539l-0.919,4.116c0,0-11.033,0-12.091,0  c-0.188,0.836-0.942,4.217-1.213,5.439c1.529,0,10.475,0,10.475,0l-0.919,4.116c0,0-9.416,0-10.475,0  c-0.223,1.023-2.242,10.107-2.242,10.107h-4.447L70.904,143.979z M93.066,149.787c0.166-0.021,0.347,0,0.514,0  c1.059,0,2.036,0.321,2.977,0.992l0.588,0.404l-2.278,3.748l-0.625-0.441c-0.458-0.293-0.952-0.44-1.47-0.44  c-0.447,0-0.863,0.159-1.286,0.44c-0.447,0.295-0.82,0.685-1.103,1.213c-0.494,0.906-0.856,1.92-1.103,3.014l-1.985,9.042h-4.263  l3.933-17.642h3.969c0,0-0.137,0.535-0.184,0.734c0.188-0.141,0.386-0.334,0.551-0.44C91.871,150.071,92.473,149.859,93.066,149.787  z M105.708,149.787c0.257-0.02,0.51,0,0.772,0c2.399,0,4.215,0.84,5.403,2.499c0.741,1.069,1.139,2.393,1.139,3.969  c0,0.87-0.107,1.808-0.331,2.83l-0.331,1.286c0,0-10.782,0-11.981,0c-0.023,0.247-0.037,0.512-0.037,0.735  c0,0.917,0.188,1.64,0.588,2.169c0.19,0.258,0.411,0.491,0.662,0.661c0.474,0.309,1.085,0.478,1.801,0.478  c0.871,0,1.635-0.24,2.353-0.698c0.682-0.435,1.335-1.13,1.911-2.095h4.557l-0.404,0.882c-0.87,1.765-2.084,3.14-3.602,4.116  s-3.33,1.507-5.33,1.507c-2.599,0-4.534-0.841-5.733-2.499c-1.188-1.623-1.443-3.866-0.809-6.689  c0.635-2.869,1.903-5.162,3.749-6.762C101.741,150.74,103.619,149.944,105.708,149.787z M124.857,149.787  c0.257-0.02,0.509,0,0.771,0c2.399,0,4.215,0.84,5.403,2.499c0.741,1.069,1.139,2.393,1.139,3.969c0,0.858-0.107,1.782-0.331,2.793  l-0.331,1.323c0,0-10.782,0-11.981,0c-0.012,0.165-0.025,0.313-0.037,0.479c-0.008,0.061,0.004,0.155,0,0.22  c0,0.011,0,0.026,0,0.037c0,0.177,0.025,0.35,0.037,0.515c0.059,0.67,0.233,1.23,0.551,1.654c0.061,0.082,0.117,0.184,0.184,0.257  c0.539,0.576,1.301,0.882,2.279,0.882c0.87,0,1.646-0.24,2.352-0.698c0.682-0.435,1.335-1.13,1.911-2.095h4.594l-0.441,0.882  c-0.871,1.765-2.084,3.14-3.602,4.116c-1.517,0.977-3.33,1.507-5.329,1.507c-2.599,0-4.534-0.841-5.733-2.499  c-0.776-1.059-1.14-2.406-1.14-4.006c0-0.247,0.014-0.514,0.037-0.771c0.047-0.612,0.141-1.229,0.294-1.912  c0.635-2.857,1.866-5.162,3.712-6.762C120.852,150.74,122.766,149.944,124.857,149.787z M177.009,149.787  c0.263-0.021,0.504,0,0.771,0c2.446,0,4.326,0.827,5.55,2.462c1.211,1.635,1.506,3.84,0.882,6.615  c-0.482,2.164-1.179,3.912-2.132,5.183c-0.952,1.27-2.167,2.308-3.602,3.014c-1.423,0.705-2.93,1.065-4.447,1.065  c-2.493,0-4.35-0.853-5.549-2.499c-0.776-1.047-1.177-2.395-1.177-4.006c0-0.87,0.096-1.795,0.331-2.83  c0.705-3.152,2.146-5.553,4.264-7.094C173.454,150.576,175.17,149.928,177.009,149.787z M241.583,149.787  c0.311-0.02,0.598,0,0.919,0c1.482,0,2.646,0.149,3.528,0.514c0.941,0.377,1.608,0.908,1.984,1.544  c0.364,0.6,0.552,1.336,0.552,2.242l-0.441,2.683l-0.809,3.639c-0.693,3.104-0.847,4.27-0.882,4.704  c-0.035,0.589,0.019,1.161,0.184,1.69l0.294,0.956h-4.337l-0.184-0.552c-0.07-0.258-0.05-0.588-0.073-0.882  c-0.823,0.506-1.648,0.954-2.389,1.213c-1.094,0.376-2.229,0.588-3.382,0.588c-1.999,0-3.479-0.521-4.373-1.544  c-0.683-0.752-0.993-1.673-0.993-2.719c0-0.4,0.054-0.814,0.147-1.25c0.2-0.894,0.563-1.722,1.14-2.463  c0.564-0.729,1.231-1.328,1.984-1.764c0.729-0.436,1.542-0.744,2.389-0.955l2.609-0.441c2.012-0.235,3.513-0.527,4.595-0.846  c0.023-0.117,0.073-0.257,0.073-0.257c0.17-0.757,0.149-1.325-0.037-1.617c-0.014-0.019-0.058-0.058-0.073-0.073  c-0.04-0.043-0.101-0.109-0.146-0.147c-0.442-0.351-1.197-0.515-2.206-0.515c-1.141,0-1.984,0.188-2.572,0.552  c-0.576,0.364-1.11,1.032-1.58,1.984h-4.447l0.404-0.882c0.529-1.224,1.16-2.238,1.947-3.014c0.789-0.776,1.853-1.378,3.088-1.801  C239.443,150.062,240.476,149.855,241.583,149.787z M260.217,149.787c0.166-0.021,0.348,0,0.515,0c1.07,0,2.073,0.321,3.014,0.992  l0.552,0.404l-2.279,3.748l-0.625-0.441c-0.458-0.293-0.928-0.44-1.433-0.44c-0.447,0-0.889,0.159-1.323,0.44  c-0.447,0.295-0.772,0.685-1.066,1.213c-0.482,0.906-0.855,1.92-1.103,3.014l-2.021,9.042c0.001,0-4.263,0-4.263,0l3.933-17.642  h3.969c0,0-0.1,0.535-0.146,0.734c0.188-0.141,0.374-0.334,0.551-0.44C259.05,150.071,259.625,149.859,260.217,149.787z   M272.824,149.787c0.257-0.02,0.509,0,0.771,0c2.399,0,4.227,0.84,5.402,2.499c0.753,1.069,1.14,2.393,1.14,3.969  c0,0.87-0.144,1.808-0.367,2.83l-0.294,1.286c0,0-10.794,0-11.981,0c-0.023,0.247-0.073,0.512-0.073,0.735  c0,0.917,0.199,1.64,0.588,2.169c0.06,0.082,0.153,0.184,0.22,0.257c0.039,0.041,0.106,0.108,0.147,0.147  c0.525,0.478,1.241,0.734,2.132,0.734c0.87,0,1.635-0.24,2.352-0.698c0.683-0.435,1.323-1.13,1.911-2.095h4.595l-0.441,0.882  c-0.87,1.765-2.096,3.14-3.602,4.116c-1.529,0.977-3.318,1.507-5.329,1.507c-2.599,0-4.497-0.841-5.696-2.499  c-1.188-1.623-1.469-3.866-0.846-6.689c0.635-2.869,1.865-5.162,3.712-6.762C268.828,150.74,270.735,149.944,272.824,149.787z   M208.469,150.117h4.374c0,0,0.539,10.469,0.551,10.621c0.177-0.375,0.313-0.689,0.331-0.734l4.814-9.887h4.006  c0,0,0.368,10.342,0.368,10.401c0.117-0.212,5.476-10.401,5.476-10.401h4.337l-9.556,17.642h-3.933c0,0-0.381-9.566-0.404-10.107  c-1.623,3.329-4.925,10.107-4.925,10.107h-4.043L208.469,150.117z M105.782,153.462c-1.013,0.042-1.933,0.407-2.793,1.103  c-0.682,0.541-1.142,1.283-1.507,2.095h7.24c0.012-0.129,0.037-0.286,0.037-0.404c0-0.671-0.119-1.19-0.331-1.544  c-0.518-0.846-1.285-1.249-2.426-1.249C105.934,153.462,105.849,153.459,105.782,153.462z M124.93,153.462  c-1.013,0.042-1.933,0.407-2.793,1.103c-0.682,0.541-1.13,1.283-1.507,2.095h7.24c0.012-0.129,0.037-0.286,0.037-0.404  c0-0.671-0.107-1.19-0.331-1.544c-0.103-0.172-0.242-0.343-0.368-0.478c-0.491-0.507-1.167-0.771-2.058-0.771  C125.082,153.462,124.998,153.459,124.93,153.462z M273.044,153.462c-1.042,0.032-2.016,0.385-2.903,1.103  c-0.671,0.541-1.131,1.283-1.508,2.095h7.204c0.012-0.129,0.036-0.286,0.036-0.404c0-0.671-0.107-1.19-0.33-1.544  c-0.506-0.834-1.285-1.237-2.426-1.249C273.083,153.462,273.078,153.461,273.044,153.462z M176.751,153.535  c-0.972,0.115-1.876,0.559-2.72,1.323c-1.011,0.917-1.744,2.358-2.168,4.264c-0.177,0.8-0.258,1.483-0.258,2.095  c0,0.835,0.161,1.49,0.479,1.984c0.084,0.127,0.196,0.261,0.294,0.367c0.522,0.556,1.253,0.846,2.168,0.846  c1.188,0,2.234-0.442,3.234-1.359c1.012-0.93,1.733-2.385,2.169-4.338c0.399-1.787,0.344-3.122-0.221-3.969  c-0.541-0.823-1.332-1.213-2.426-1.213C177.118,153.535,176.932,153.514,176.751,153.535z M243.164,159.967  c-1,0.271-2.12,0.498-3.603,0.698c-1.105,0.165-1.894,0.339-2.352,0.515c-0.4,0.165-0.722,0.393-0.992,0.699  c-0.259,0.293-0.433,0.602-0.515,0.955c-0.023,0.141-0.037,0.287-0.037,0.404c0,0.01,0,0.027,0,0.037  c0.001,0.027-0.003,0.082,0,0.109c0.008,0.054,0.022,0.135,0.037,0.184c0.005,0.018,0.03,0.059,0.036,0.074  c0.013,0.031,0.021,0.08,0.037,0.109c0.017,0.03,0.054,0.082,0.073,0.111c0.031,0.042,0.073,0.107,0.11,0.146  c0.294,0.329,0.881,0.478,1.728,0.478c0.929,0,1.823-0.177,2.646-0.588c0.812-0.399,1.465-0.997,1.947-1.69  C242.635,161.715,242.916,160.955,243.164,159.967z M45.334,129.291L68.567,27.45h13.667l-20.578,90.309h53.065l-2.655,11.532  H45.334"/>
</svg>
